<?xml version="1.0" standalone="no"?>
<!DOCTYPE svg PUBLIC "-//W3C//DTD SVG 20010904//EN"
 "http://www.w3.org/TR/2001/REC-SVG-20010904/DTD/svg10.dtd">
<svg version="1.0" xmlns="http://www.w3.org/2000/svg"
 width="100.000000pt" height="100.000000pt" viewBox="0 0 100.000000 100.000000"
 preserveAspectRatio="xMidYMid meet">
<metadata>
Created by potrace 1.16, written by Peter Selinger 2001-2019
</metadata>
<g transform="translate(0.000000,100.000000) scale(0.100000,-0.100000)"
fill="#f5f5f5" stroke="none">
<path d="M225 969 c-33 -16 -61 -34 -63 -39 -2 -6 -8 -10 -14 -10 -13 0 -68
-56 -68 -69 0 -6 -4 -11 -9 -11 -5 0 -23 -29 -40 -65 -28 -60 -31 -75 -31
-166 0 -80 4 -108 20 -141 11 -23 20 -45 20 -50 0 -8 16 -30 68 -89 63 -71
176 -119 282 -119 58 0 181 33 203 54 32 32 87 17 87 -25 0 -19 210 -239 229
-239 11 0 91 80 91 91 0 19 -220 229 -239 229 -42 0 -57 55 -25 87 21 22 54
145 54 204 0 68 -26 158 -62 215 -26 41 -127 134 -145 134 -5 0 -28 9 -51 20
-33 16 -61 20 -144 19 -93 0 -109 -3 -163 -30z m261 -44 c31 -8 65 -22 74 -30
9 -8 20 -15 23 -15 15 0 89 -87 112 -132 21 -41 25 -61 25 -138 0 -77 -4 -98
-26 -141 -32 -65 -98 -131 -163 -163 -43 -22 -64 -26 -141 -26 -77 0 -97 4
-138 25 -45 23 -132 97 -132 112 0 3 -7 14 -15 23 -20 22 -45 119 -45 173 0
83 45 182 106 238 91 81 197 106 320 74z"/>
<path d="M246 847 c-43 -13 -76 -61 -76 -108 0 -15 -7 -29 -15 -33 -22 -8 -55
-67 -55 -97 0 -35 24 -90 47 -110 10 -9 35 -22 55 -30 22 -7 39 -21 42 -33 15
-54 80 -96 147 -96 58 0 120 43 132 92 5 17 20 29 54 41 103 38 133 163 53
226 -22 17 -30 32 -30 55 -1 41 -28 76 -76 92 -48 17 -85 18 -119 2 -19 -9
-28 -9 -37 0 -15 15 -71 14 -122 -1z m120 -53 c12 -15 34 -19 34 -6 0 5 12 14
26 21 55 25 145 -28 131 -77 -2 -9 -8 -25 -12 -34 -6 -14 -2 -18 18 -18 27 0
67 -44 67 -75 0 -47 -66 -105 -120 -105 -12 0 -20 -11 -24 -34 -11 -59 -76
-97 -130 -74 -39 16 -75 57 -76 86 0 16 -6 22 -22 22 -13 1 -38 9 -57 18 -70
35 -71 145 -1 159 30 5 31 7 25 44 -8 48 4 70 47 86 38 14 78 9 94 -13z"/>
<path d="M263 788 c-31 -15 -30 -59 2 -115 26 -43 52 -54 83 -34 19 12 20 140
1 152 -19 12 -59 10 -86 -3z"/>
<path d="M416 779 c-31 -45 -12 -135 32 -146 20 -5 30 0 48 22 30 38 41 102
22 121 -8 8 -30 17 -50 20 -29 5 -38 2 -52 -17z"/>
<path d="M182 644 c-22 -15 -29 -49 -14 -69 34 -49 125 -74 139 -39 7 20 -23
82 -52 106 -25 22 -44 22 -73 2z"/>
</g>
</svg>
